<?xml version="1.0" encoding="UTF-8" standalone="no"?>
<!-- Generator: Adobe Illustrator 23.1.1, SVG Export Plug-In . SVG Version: 6.00 Build 0)  -->

<svg
   xmlns:dc="http://purl.org/dc/elements/1.1/"
   xmlns:cc="http://creativecommons.org/ns#"
   xmlns:rdf="http://www.w3.org/1999/02/22-rdf-syntax-ns#"
   xmlns:svg="http://www.w3.org/2000/svg"
   xmlns="http://www.w3.org/2000/svg"
   xmlns:sodipodi="http://sodipodi.sourceforge.net/DTD/sodipodi-0.dtd"
   xmlns:inkscape="http://www.inkscape.org/namespaces/inkscape"
   version="1.1"
   id="Warstwa_1"
   x="0px"
   y="0px"
   viewBox="0 0 1534.4 374.1"
   style="enable-background:new 0 0 1534.4 374.1;"
   xml:space="preserve"
   sodipodi:docname="3mdeb_logo.svg"
   inkscape:version="0.92.4 (5da689c313, 2019-01-14)"><metadata
   id="metadata30"><rdf:RDF><cc:Work
       rdf:about=""><dc:format>image/svg+xml</dc:format><dc:type
         rdf:resource="http://purl.org/dc/dcmitype/StillImage" /><dc:title>Obszar roboczy 1 kopia</dc:title></cc:Work></rdf:RDF></metadata><defs
   id="defs28" /><sodipodi:namedview
   pagecolor="#ffffff"
   bordercolor="#666666"
   borderopacity="1"
   objecttolerance="10"
   gridtolerance="10"
   guidetolerance="10"
   inkscape:pageopacity="0"
   inkscape:pageshadow="2"
   inkscape:window-width="1920"
   inkscape:window-height="1145"
   id="namedview26"
   showgrid="false"
   inkscape:zoom="0.22093326"
   inkscape:cx="767.20001"
   inkscape:cy="187.05"
   inkscape:window-x="0"
   inkscape:window-y="55"
   inkscape:window-maximized="0"
   inkscape:current-layer="Warstwa_1" />
<style
   type="text/css"
   id="style2">
	.st0{fill:#272727;}
	.st1{fill:#F5F5F5;}
	.st2{fill:#38D430;}
</style>
<title
   id="title4">Obszar roboczy 1 kopia</title>

<g
   id="logo">
	<path
   class="st1"
   d="m 695.6,128.4 h 39.5 c 2.8,0 5.4,1.5 6.8,4 l 34.6,63.1 c 0.7,1.2 2.3,1.7 3.5,1 0.4,-0.2 0.8,-0.6 1,-1 l 34.5,-63.1 c 1.4,-2.5 4,-4.1 6.8,-4.1 h 39.1 c 4.3,0 7.8,3.5 7.8,7.8 v 91.8 c 0,4.3 -3.5,7.8 -7.8,7.8 0,0 0,0 0,0 h -16.1 c -4.3,0 -7.8,-3.5 -7.8,-7.7 0,0 0,0 0,0 v -0.1 l 1.3,-64.9 c 0,-1.4 -1.1,-2.6 -2.5,-2.6 -1,0 -1.8,0.5 -2.3,1.3 l -40.4,70.2 c -1.4,2.4 -4,3.9 -6.8,3.9 h -17 c -2.8,0 -5.4,-1.5 -6.8,-4 l -39.6,-70.2 c -0.7,-1.2 -2.3,-1.7 -3.6,-0.9 -0.8,0.5 -1.3,1.3 -1.3,2.3 l 0.8,64.9 c 0,4.3 -3.4,7.8 -7.7,7.9 0,0 0,0 0,0 h -16 c -4.3,0 -7.8,-3.4 -7.8,-7.7 0,0 0,0 0,0 v -91.8 c 0.1,-4.5 3.5,-7.9 7.8,-7.9 z"
   id="path8"
   inkscape:connector-curvature="0"
   style="fill:#f5f5f5" />
	<path
   class="st1"
   d="m 999.2,210.1 c 8.9,0 9.5,0 13.4,-1.3 7.9,-2.4 10,-8 10,-26.6 0,-22.6 -3.8,-27.2 -22.7,-27.2 h -52.8 c -1.4,0 -2.6,1.1 -2.6,2.5 v 49.9 c 0,1.4 1.1,2.6 2.5,2.6 h 52.2 z m -87.4,-74 c 0,-4.3 3.5,-7.8 7.8,-7.8 h 84.9 c 22.7,0 33.3,2.6 40.7,10 6,5.8 8.3,12.5 9.5,26.2 0.3,5 0.6,12.4 0.6,17.5 0.1,9 -0.5,18 -1.6,26.9 -1.8,12.9 -10.8,22.9 -22.5,25.1 -6.1,1.3 -11,1.6 -22.4,1.6 h -89.2 c -4.3,0 -7.8,-3.4 -7.8,-7.7 0,0 0,0 0,0 v 0 z"
   id="path10"
   inkscape:connector-curvature="0"
   style="fill:#f5f5f5" />
	<path
   class="st1"
   d="m 1216.2,136.1 v 8.7 c 0,4.3 -3.5,7.8 -7.8,7.8 v 0 h -80.7 c -1.4,0 -2.6,1.2 -2.6,2.6 v 13.3 c 0,1.4 1.2,2.6 2.6,2.6 h 75.8 c 4.3,0 7.8,3.5 7.8,7.8 v 5.7 c 0,4.3 -3.5,7.8 -7.8,7.8 h -75.7 c -1.4,0 -2.6,1.1 -2.6,2.6 v 13.9 c 0,1.4 1.2,2.6 2.6,2.6 h 81.9 c 4.3,0 7.8,3.5 7.8,7.8 0,0 0,0 0,0 v 0 8.8 c 0,4.3 -3.5,7.8 -7.8,7.8 v 0 h -108.9 c -4.3,0 -7.8,-3.5 -7.8,-7.8 v 0 -91.8 c 0,-4.3 3.5,-7.8 7.8,-7.8 h 107.7 c 4.3,-0.2 7.7,3.3 7.7,7.6 z"
   id="path12"
   inkscape:connector-curvature="0"
   style="fill:#f5f5f5" />
	<path
   class="st1"
   d="m 1349.3,211.9 c 6.6,0 7.9,-0.2 10,-0.8 3.2,-1.1 5.2,-4.4 5.2,-8.8 0,-4.4 -1.9,-7.9 -5.5,-9.2 -1.9,-0.6 -3.2,-0.8 -10.4,-0.8 h -55.1 c -1.4,0 -2.6,1.1 -2.6,2.6 0,0 0,0 0,0 v 14.4 c 0,1.4 1.1,2.6 2.6,2.6 0,0 0,0 0,0 z m -3.5,-40.8 c 6.2,0 8.5,-0.3 10.6,-1.3 4.4,-3.1 5.5,-9.2 2.4,-13.7 -1,-1.4 -2.3,-2.5 -3.9,-3.2 -2.1,-0.6 -3.7,-0.8 -10,-0.8 h -51.5 c -1.4,0 -2.6,1.1 -2.6,2.6 v 13.8 c 0,1.4 1.1,2.6 2.6,2.6 0,0 0,0 0,0 z m -86.8,-35 c 0,-4.3 3.5,-7.8 7.8,-7.9 h 89 c 12.4,0 19.2,1.1 24.8,3.9 8.7,4.5 12.2,11.8 12.2,25.4 0,14 -4.8,21.3 -15,23.2 14.5,2.8 19.3,9 19.3,24.6 0,13.5 -3.9,22 -12.4,26.6 -5,2.6 -12.1,3.7 -24.5,3.7 h -93.5 c -4.3,0 -7.8,-3.5 -7.8,-7.9 z"
   id="path14"
   inkscape:connector-curvature="0"
   style="fill:#f5f5f5" />
	<path
   class="st1"
   d="m 630.2,182 c 12.5,-3.2 15.6,-7.9 15.6,-23.6 0,-25.7 -8.8,-30.3 -59.9,-30.3 -13.5,0 -23.5,0.2 -30.4,0.8 -13.8,0.8 -22,3.4 -27.2,7.9 -4.6,4.2 -6.2,7.8 -7.1,19.4 -0.3,4.3 3,8 7.3,8.3 0,0 0,0 0,0 h 16.3 c 3.1,0 5.6,-2.3 6,-5.3 v 0 c 0.4,-3.4 2.7,-6.2 5.8,-7.4 3.9,-1.5 3.5,-1.5 26.8,-1.9 22.2,0.6 22.2,0.6 26.1,2.1 3.6,1.5 5.8,5.2 5.5,9.2 0,4.5 -1.5,7.2 -4.3,8.9 -1.9,1 -8.3,1.8 -15.1,1.8 h -16.4 c -4.3,0 -7.8,3.4 -7.8,7.7 0,0 0,0 0,0 v 4.8 c 0,4.3 3.5,7.8 7.8,7.8 0,0 0,0 0,0 h 16.4 c 6.8,0 13.2,0.8 15.1,1.8 2.9,1.6 4.3,4.4 4.3,8.9 0.3,3.9 -1.9,7.6 -5.5,9.2 -3.8,1.4 -3.8,1.4 -26.1,2.1 -22.9,-0.3 -22.9,-0.3 -26.6,-1.8 -3.4,-1 -5.8,-4 -6,-7.5 v 0 c -0.4,-3 -2.9,-5.3 -6,-5.4 h -15.9 c -4.3,0 -7.8,3.5 -7.8,7.9 0,0 0,0 0,0 0,0.2 0,0.3 0,0.5 0.8,11.6 2.5,15.3 7.1,19.4 5.2,4.5 13.4,7.1 27.2,7.9 6.9,0.6 16.9,0.8 30.4,0.8 51,0 59.9,-4.5 59.9,-30.2 0.1,-15.9 -2.9,-20.6 -15.5,-23.8 z"
   id="path16"
   inkscape:connector-curvature="0"
   style="fill:#f5f5f5" />
	<path
   class="st1"
   d="m 236.5,118.6 c -7.5,0 -13.6,-6.2 -13.6,-13.7 v 0 c 0,-7.5 6.1,-13.6 13.6,-13.7 h 71.3 c 7.6,0 13.7,6.1 13.7,13.7 v 0 0 c 0,7.5 6.1,13.6 13.6,13.6 h 99.5 c 7.6,0 13.7,6.1 13.7,13.7 v 0 c 0,7.6 -6.2,13.7 -13.7,13.7 H 307 c -7.6,0 -13.7,-6.1 -13.7,-13.7 v 0 c 0,-7.5 -6.1,-13.6 -13.6,-13.6 z"
   id="path18"
   inkscape:connector-curvature="0"
   style="fill:#f5f5f5" />
	<path
   class="st1"
   d="m 151.9,255.5 c -7.6,0 -13.7,6.1 -13.7,13.7 v 0.4 c 0.4,7.5 6.7,13.4 14.3,13.3 h 155 c 7.6,0 13.7,-6.1 13.7,-13.7 v 0 0 c 0,-7.6 6.1,-13.7 13.7,-13.7 0,0 0.1,0 0.1,0 h 99.1 c 7.6,0.1 13.9,-5.7 14.3,-13.3 0.2,-7.6 -5.7,-13.9 -13.3,-14.1 0,0 0,0 0,0 H 378 c -7.5,0.1 -13.9,-5.7 -14.3,-13.3 -0.2,-7.6 5.7,-13.9 13.3,-14.1 0,0 0,0 0,0 h 14.7 c 7.6,0.1 13.9,-5.7 14.3,-13.3 0.3,-7.5 -5.6,-13.9 -13.2,-14.2 H 265.2 c -7.5,-0.1 -13.8,5.7 -14.2,13.3 -0.2,7.6 5.7,13.9 13.3,14.1 h 57 c 7.5,-0.1 13.8,5.8 14.2,13.3 0.2,7.6 -5.7,13.9 -13.2,14.1 0,0 0,0 0,0 H 307 c -7.6,0 -13.7,6.1 -13.7,13.7 v 0 0 c 0,7.6 -6.1,13.7 -13.7,13.7 v 0 0 z"
   id="path20"
   inkscape:connector-curvature="0"
   style="fill:#f5f5f5" />
	<circle
   class="st2"
   cx="180.5"
   cy="104.9"
   r="14.1"
   id="circle22"
   style="fill:#38d430" />
</g>
</svg>
